<svg width="24" height="24" viewBox="0 0 24 24" fill="none" xmlns="http://www.w3.org/2000/svg">
<path d="M12.0001 23.4999C9.45005 23.4999 7.07555 22.9499 5.48455 21.9999C4.72473 21.5633 4.08525 20.9447 3.62355 20.1999C3.21726 19.5402 3.00184 18.7809 3.00122 18.0061C3.0006 17.2314 3.21482 16.4717 3.62005 15.8114C4.08132 15.0624 4.72129 14.4396 5.48255 13.9989L5.66205 13.8954C7.25005 13.0074 9.56355 12.4999 12.0086 12.4999C14.5586 12.4999 16.9301 13.0444 18.5166 13.9939C19.2764 14.4305 19.9158 15.049 20.3776 15.7939C20.7839 16.4534 20.9993 17.2127 20.9999 17.9874C21.0005 18.762 20.7863 19.5217 20.3811 20.1819C19.9196 20.9309 19.2795 21.5537 18.5181 21.9944C16.9256 22.9499 14.5501 23.4999 12.0001 23.4999ZM6.50705 15.7124L6.40305 15.7774C5.99498 16.001 5.65147 16.326 5.4057 16.7211C5.15993 17.1162 5.02022 17.568 5.00005 18.0329C5.03702 18.5061 5.19541 18.9618 5.45992 19.3559C5.72444 19.7501 6.08613 20.0693 6.51005 20.2829C7.80005 21.0559 9.80005 21.4999 12.0001 21.4999C14.2001 21.4999 16.2001 21.0564 17.4896 20.2824C17.9197 20.0657 18.2855 19.74 18.5505 19.3379C18.8156 18.9357 18.9705 18.4711 19.0001 17.9904C18.9695 17.5117 18.8141 17.0493 18.5492 16.6494C18.2844 16.2494 17.9194 15.9259 17.4906 15.7109C16.2051 14.9414 14.2071 14.4999 12.0086 14.4999C9.81005 14.4999 7.80355 14.9419 6.50705 15.7124ZM12.0626 11.4949H12.0201H12.0001C11.9751 11.4949 11.9461 11.4949 11.9191 11.4984L11.8566 11.4999H11.7946C10.3712 11.451 9.02265 10.8502 8.03446 9.82462C7.04627 8.79901 6.49597 7.4291 6.50005 6.00488C6.49977 5.104 6.72079 4.21684 7.14368 3.42139C7.56657 2.62593 8.17838 1.94653 8.92533 1.4429C9.67229 0.939275 10.5315 0.626839 11.4275 0.533058C12.3235 0.439276 13.2288 0.56702 14.0638 0.905062C14.8989 1.2431 15.6381 1.78109 16.2166 2.47174C16.795 3.16239 17.1949 3.98455 17.3812 4.86596C17.5675 5.74738 17.5344 6.66105 17.2848 7.52668C17.0353 8.39231 16.5769 9.18338 15.9501 9.83038C14.9644 10.8553 13.6173 11.4544 12.1961 11.4999H12.1621C12.1288 11.5 12.0956 11.4983 12.0626 11.4949ZM9.52355 3.52588C8.87606 4.17667 8.50869 5.05483 8.49991 5.97281C8.49113 6.89079 8.84163 7.77583 9.47655 8.43888C10.1021 9.09104 10.9583 9.47196 11.8616 9.49988H11.8191L11.8691 9.49638C11.9121 9.49638 11.9561 9.49388 11.9981 9.49388C12.0401 9.49388 12.0901 9.49388 12.1341 9.49688L12.1731 9.49988L12.2476 9.49588C13.1104 9.43675 13.9206 9.05939 14.521 8.43694C15.1215 7.81449 15.4695 6.99129 15.4976 6.12688L15.5001 6.00488C15.5012 5.31196 15.2966 4.63429 14.9123 4.05774C14.5279 3.48118 13.9811 3.03169 13.341 2.7662C12.701 2.50072 11.9966 2.43119 11.317 2.56643C10.6374 2.70167 10.0132 3.03559 9.52355 3.52588Z" fill="#7d7d84"/>
</svg>
